<svg width="165" height="62" viewBox="0 0 165 62" fill="none" xmlns="http://www.w3.org/2000/svg">
<path d="M2.832 19.328C2.832 18.496 3.136 17.808 3.744 17.264C4.352 16.688 5.12 16.4 6.048 16.4H18.864C22.32 16.4 24.992 17.312 26.88 19.136C28.8 20.96 29.76 23.52 29.76 26.816C29.76 28.704 29.376 30.304 28.608 31.616C27.84 32.896 26.672 33.92 25.104 34.688V34.832C27.92 36.08 29.328 38.448 29.328 41.936V45.68C29.328 47.216 28.784 48.4 27.696 49.232C26.608 50.032 25.008 50.432 22.896 50.432V42.224C22.896 40.528 22.56 39.28 21.888 38.48C21.216 37.68 20.192 37.28 18.816 37.28H9.168V45.68C9.168 47.248 8.624 48.432 7.536 49.232C6.48 50.032 4.912 50.432 2.832 50.432V19.328ZM18.528 31.808C20.064 31.808 21.248 31.376 22.08 30.512C22.912 29.616 23.328 28.368 23.328 26.768C23.328 23.504 21.728 21.872 18.528 21.872H9.168V31.808H18.528ZM45.3094 50.432C43.3574 50.432 41.5654 50.048 39.9334 49.28C38.3334 48.512 37.0694 47.456 36.1414 46.112C35.2134 44.736 34.7494 43.2 34.7494 41.504V34.88C34.7494 33.12 35.2294 31.536 36.1894 30.128C37.1494 28.72 38.4454 27.616 40.0774 26.816C41.7094 25.984 43.4694 25.568 45.3574 25.568C47.2454 25.568 48.9574 25.952 50.4934 26.72C52.0614 27.488 53.2934 28.576 54.1894 29.984C55.1174 31.36 55.5814 32.912 55.5814 34.64V37.472C55.5814 38.112 55.3414 38.656 54.8614 39.104C54.3814 39.552 53.7734 39.776 53.0374 39.776H39.9814V41.168C39.9814 42.64 40.4294 43.824 41.3254 44.72C42.2534 45.616 43.5974 46.064 45.3574 46.064C47.0854 46.064 48.3814 45.696 49.2454 44.96C50.1094 44.192 50.5414 43.184 50.5414 41.936C50.7334 41.904 51.0214 41.888 51.4054 41.888C52.4934 41.888 53.3574 42.144 53.9974 42.656C54.6694 43.136 55.0054 43.824 55.0054 44.72C55.0054 45.68 54.5734 46.608 53.7094 47.504C52.8454 48.368 51.6614 49.072 50.1574 49.616C48.6854 50.16 47.0694 50.432 45.3094 50.432ZM50.6374 35.792V34.64C50.6374 33.2 50.1414 32.048 49.1494 31.184C48.1894 30.288 46.9094 29.84 45.3094 29.84C43.7094 29.84 42.4134 30.288 41.4214 31.184C40.4614 32.048 39.9814 33.2 39.9814 34.64V35.792H50.6374ZM62.8436 29.984H58.9556C58.9556 27.264 59.8516 25.904 61.6436 25.904H62.8436V24.176C62.8436 22.736 63.2916 21.392 64.1876 20.144C65.1156 18.864 66.3476 17.856 67.8836 17.12C69.4516 16.352 71.1156 15.968 72.8756 15.968C77.0676 15.968 80.3956 17.12 82.8596 19.424V42.512C82.8596 43.664 83.0996 44.496 83.5796 45.008C84.0916 45.488 84.9076 45.728 86.0276 45.728C87.2756 45.728 88.4116 45.424 89.4356 44.816C90.0436 45.36 90.3476 46.08 90.3476 46.976C90.3476 47.968 89.8516 48.8 88.8596 49.472C87.8676 50.112 86.6356 50.432 85.1636 50.432C82.7956 50.432 80.9236 49.744 79.5476 48.368C78.1716 46.992 77.4836 45.104 77.4836 42.704V29.984H68.2196V46.976C68.2196 48.192 67.7876 49.072 66.9236 49.616C66.0596 50.16 64.6996 50.432 62.8436 50.432V29.984ZM77.4836 25.904V21.632C76.8116 21.248 76.1236 20.976 75.4196 20.816C74.7476 20.656 73.9796 20.576 73.1156 20.576C71.6116 20.576 70.4116 20.928 69.5156 21.632C68.6516 22.304 68.2196 23.232 68.2196 24.416V25.904H77.4836ZM141.674 50.432C140.33 50.432 139.21 50.16 138.314 49.616C137.418 49.04 136.842 48.256 136.586 47.264L130.826 26.048C131.082 25.92 131.434 25.808 131.882 25.712C132.33 25.616 132.778 25.568 133.226 25.568C134.09 25.568 134.81 25.776 135.386 26.192C135.994 26.576 136.378 27.088 136.538 27.728L139.754 41.648L139.178 44.144L139.466 44.24L144.122 27.344C144.282 26.8 144.57 26.368 144.986 26.048C145.434 25.728 146.01 25.568 146.714 25.568C147.386 25.568 147.946 25.744 148.394 26.096C148.874 26.416 149.194 26.832 149.354 27.344L153.146 41.936L152.474 44.48L152.81 44.576L156.842 27.728C157.002 27.088 157.37 26.576 157.946 26.192C158.554 25.776 159.29 25.568 160.154 25.568C160.602 25.568 161.05 25.616 161.498 25.712C161.946 25.808 162.298 25.92 162.554 26.048L156.842 47.264C156.554 48.256 155.914 49.04 154.922 49.616C153.962 50.16 152.81 50.432 151.466 50.432L146.282 30.656L146.042 30.704L146.57 32.72L141.674 50.432Z" fill="url(#paint0_linear_12_7)"/>
<path d="M104.36 48.4261C101.587 47.1534 99.3264 45.2311 97.5792 42.6591C95.8331 40.0871 94.96 37.1837 94.96 33.9489C94.96 33.2595 95 32.5833 95.08 31.9205C95.16 31.2576 95.28 30.608 95.44 29.9716L93.6 31.0455L92 28.3011L99.64 23.9261L104.04 31.483L101.24 33.0739L99.08 29.3352C98.7867 30.0511 98.5669 30.7936 98.4208 31.5625C98.2736 32.3314 98.2 33.1269 98.2 33.9489C98.2 36.5208 98.9067 38.8611 100.32 40.9695C101.733 43.077 103.613 44.6345 105.96 45.642L104.36 48.4261ZM116.6 29.1364V25.9545H120.96C119.733 24.4432 118.253 23.2696 116.52 22.4339C114.787 21.5992 112.947 21.1818 111 21.1818C109.533 21.1818 108.147 21.4072 106.84 21.858C105.533 22.3087 104.333 22.9451 103.24 23.767L101.64 20.983C102.973 20.0549 104.42 19.3258 105.981 18.7955C107.54 18.2652 109.2 18 110.96 18C113.067 18 115.086 18.3908 117.019 19.1725C118.953 19.9552 120.68 21.089 122.2 22.5739V20.3864H125.4V29.1364H116.6ZM115.56 53L107.92 48.625L112.32 41.0682L115.08 42.6591L112.8 46.5568C115.947 46.1061 118.567 44.6939 120.661 42.3202C122.754 39.9477 123.8 37.1572 123.8 33.9489C123.8 33.6572 123.794 33.3788 123.781 33.1136C123.767 32.8485 123.733 32.5833 123.68 32.3182H126.92C126.947 32.5833 126.967 32.8421 126.981 33.0945C126.994 33.3459 127 33.6174 127 33.9091C127 37.4886 125.927 40.6906 123.781 43.515C121.634 46.3383 118.84 48.2405 115.4 49.2216L117.16 50.2557L115.56 53Z" fill="url(#paint1_linear_12_7)"/>
<defs>
<linearGradient id="paint0_linear_12_7" x1="2.5" y1="19.5" x2="155.5" y2="50" gradientUnits="userSpaceOnUse">
<stop stop-color="#E0EAFC"/>
<stop offset="1" stop-color="#CFDEF3"/>
</linearGradient>
<linearGradient id="paint1_linear_12_7" x1="109.5" y1="18" x2="109.5" y2="53" gradientUnits="userSpaceOnUse">
<stop stop-color="#F5B041"/>
<stop offset="0.455" stop-color="#C18C38"/>
<stop offset="1" stop-color="#EFBE70"/>
</linearGradient>
</defs>
</svg>
